<svg xmlns="http://www.w3.org/2000/svg" viewBox="0 0 1200 240">
<title>틈새 오락실의 폭탄 경기장과 러닝 코스</title>
<defs><pattern id="tiles" width="60" height="60" patternUnits="userSpaceOnUse"><path fill="#80ae59" d="M0 0h60v60H0z"/><path fill="#87b75f" d="M0 0h30v30H0zM30 30h30v30H30z"/></pattern><g id="stone"><rect width="43" height="43" rx="4" fill="#5c7b78"/><rect width="43" height="35" rx="4" fill="#93aba3"/><path d="M7 7h29" stroke="#b7ccc2" stroke-width="4"/></g><g id="crate"><rect width="43" height="43" rx="3" fill="#986439"/><path d="M4 3h35v33H4z" fill="#c38c4d"/><path d="M6 31 34 5M5 4h32v30H5z" stroke="#e3b976" stroke-width="4" fill="none"/></g><g id="character"><ellipse cy="20" rx="18" ry="6" fill="#234a3550"/><rect x="-15" y="-20" width="30" height="37" rx="10" fill="#f17449"/><rect x="-11" y="-12" width="22" height="23" rx="6" fill="#fff9e7"/><path d="M-5-5v7M5-5v7" stroke="#243d3c" stroke-width="3" stroke-linecap="round"/><path d="M-9 17v5M9 17v5" stroke="#263f37" stroke-width="6" stroke-linecap="round"/></g></defs>
<path fill="url(#tiles)" d="M0 0h600v240H0z"/><g><use href="#stone" x="70" y="30"/><use href="#stone" x="190" y="30"/><use href="#stone" x="310" y="30"/><use href="#stone" x="430" y="30"/><use href="#stone" x="70" y="150"/><use href="#stone" x="190" y="150"/><use href="#stone" x="310" y="150"/><use href="#stone" x="430" y="150"/><use href="#crate" x="130" y="90"/><use href="#crate" x="370" y="30"/><use href="#crate" x="490" y="150"/><use href="#crate" x="250" y="210"/></g><path d="M374 84v90M329 129h90" stroke="#ef8c32" stroke-width="38" stroke-linecap="round"/><path d="M374 84v90M329 129h90" stroke="#ffe482" stroke-width="20" stroke-linecap="round"/><circle cx="270" cy="110" r="20" fill="#253e43"/><path d="m275 90 5-12" stroke="#e1cc8d" stroke-width="4"/><path d="m280 73 2 6 6-1-4 5 3 5-7-1-4 4v-7l-5-3 7-1z" fill="#fff2a2"/><use href="#character" x="225" y="112"/><use href="#character" x="528" y="68"/>
<path fill="#aee0dc" d="M600 0h600v240H600z"/><circle cx="1090" cy="44" r="25" fill="#fff4c8"/><path d="M600 182Q690 24 820 184Q916 36 1020 170Q1100 66 1200 142v98H600z" fill="#6eaaa0"/><path d="M600 200Q710 110 826 195Q934 112 1040 190Q1134 122 1200 163v77H600z" fill="#44897e"/><path d="M624 48h84M942 58h54" stroke="#ecfaf0" stroke-width="19" stroke-linecap="round"/><path fill="#6c6747" d="M600 180h226v60H600zM883 180h105v60H883zM1050 180h150v60h-150z"/><path stroke="#8cbb54" stroke-width="14" d="M600 180h226M883 180h105M1050 180h150"/><path d="m997 225 10-28 10 28 10-28 10 28" fill="#f9eee1"/><g fill="#ffd269" stroke="#eaae42" stroke-width="3"><path d="m830 100 9 13-9 13-9-13zM872 91l9 13-9 13-9-13zM914 91l9 13-9 13-9-13z"/></g><g transform="translate(801 121) rotate(-12)"><use href="#character"/><path d="M-15-15h30" stroke="#168577" stroke-width="9" stroke-linecap="round"/><path d="m-16-13-15 6" stroke="#168577" stroke-width="7"/></g><path d="M1156 174v-60" stroke="#6e6e44" stroke-width="11"/><ellipse cx="1156" cy="99" rx="29" ry="43" fill="#378767"/><ellipse cx="1168" cy="89" rx="22" ry="32" fill="#469d6b"/>
</svg>
